<?xml version="1.0" encoding="UTF-8" standalone="no"?>
<!DOCTYPE svg PUBLIC "-//W3C//DTD SVG 1.1//EN" "http://www.w3.org/Graphics/SVG/1.1/DTD/svg11.dtd">
<svg width="100%" height="100%" viewBox="0 0 690 170" version="1.1" xmlns="http://www.w3.org/2000/svg" xmlns:xlink="http://www.w3.org/1999/xlink" xml:space="preserve" xmlns:serif="http://www.serif.com/" style="fill-rule:evenodd;clip-rule:evenodd;stroke-linejoin:round;stroke-miterlimit:2;">
    <path d="M664.206,105.08C666.097,105.08 667.734,105.771 669.116,107.153C670.499,108.535 671.19,110.172 671.19,112.064C671.19,113.955 670.499,115.592 669.116,116.975C667.734,118.357 666.097,119.048 664.206,119.048C662.314,119.048 660.677,118.357 659.295,116.975C657.913,115.592 657.221,113.955 657.221,112.064C657.221,110.172 657.913,108.535 659.295,107.153C660.677,105.771 662.314,105.08 664.206,105.08ZM519.501,59.791C522.411,59.791 524.885,60.264 526.922,61.21C528.959,62.156 530.451,63.029 531.396,63.829C533.797,65.793 535.252,64.484 535.761,59.9L538.271,59.9C538.126,61.938 538.017,64.357 537.944,67.157C537.871,69.958 537.835,73.723 537.835,78.452L535.325,78.452C534.888,75.76 534.143,73.141 533.088,70.595C532.033,68.049 530.487,65.957 528.45,64.32C526.413,62.683 523.757,61.865 520.484,61.865C517.937,61.865 515.809,62.574 514.1,63.993C512.39,65.411 511.535,67.503 511.535,70.268C511.535,72.45 512.19,74.324 513.499,75.888C514.809,77.452 516.519,78.907 518.628,80.253C520.738,81.599 523.03,83.072 525.503,84.673C529.65,87.364 533.179,90.093 536.089,92.857C538.999,95.622 540.454,99.259 540.454,103.77C540.454,107.117 539.581,109.918 537.835,112.173C536.089,114.428 533.815,116.138 531.014,117.302C528.213,118.466 525.14,119.048 521.793,119.048C520.193,119.048 518.683,118.921 517.264,118.666C515.846,118.411 514.481,118.03 513.172,117.52C512.444,117.157 511.699,116.72 510.935,116.211C510.171,115.701 509.425,115.156 508.698,114.574C507.97,113.992 507.315,114.01 506.733,114.628C506.151,115.247 505.715,116.465 505.424,118.284L502.914,118.284C503.059,115.956 503.168,113.119 503.241,109.772C503.314,106.426 503.35,101.988 503.35,96.458L505.86,96.458C506.37,100.533 507.097,104.097 508.043,107.153C508.989,110.209 510.48,112.591 512.517,114.301C514.554,116.011 517.392,116.866 521.029,116.866C523.212,116.866 525.376,116.102 527.522,114.574C529.668,113.046 530.742,110.354 530.742,106.498C530.742,103.297 529.578,100.678 527.249,98.641C524.921,96.604 521.975,94.458 518.41,92.202C515.791,90.529 513.336,88.856 511.044,87.183C508.752,85.509 506.897,83.618 505.478,81.508C504.06,79.398 503.35,76.852 503.35,73.869C503.35,70.595 504.096,67.921 505.587,65.848C507.079,63.775 509.061,62.247 511.535,61.265C514.009,60.282 516.664,59.791 519.501,59.791ZM625.465,43.204L625.465,61.428L641.616,61.428L641.616,63.611L625.465,63.611L625.465,105.844C625.465,109.263 626.083,111.664 627.32,113.046C628.557,114.428 630.267,115.119 632.449,115.119C634.632,115.119 636.523,114.228 638.124,112.446C639.725,110.663 641.107,107.662 642.271,103.443L644.453,103.988C643.726,108.208 642.289,111.773 640.143,114.683C637.997,117.593 634.705,119.048 630.267,119.048C627.793,119.048 625.756,118.739 624.156,118.12C622.555,117.502 621.136,116.611 619.9,115.447C618.299,113.774 617.19,111.773 616.571,109.445C615.953,107.117 615.644,104.025 615.644,100.169L615.644,63.611L605.167,63.611L605.167,61.428L615.644,61.428L615.644,44.732C617.462,44.659 619.208,44.513 620.882,44.295C622.555,44.077 624.083,43.713 625.465,43.204ZM165.707,118.284C160.978,118.284 157.54,117.102 155.394,114.738C153.248,112.373 152.175,109.227 152.175,105.298C152.175,102.242 152.921,99.714 154.412,97.713C155.904,95.713 157.813,94.076 160.141,92.803C162.469,91.53 164.925,90.438 167.508,89.529C170.09,88.619 172.546,87.728 174.874,86.855C177.202,85.982 179.112,85 180.603,83.909C182.094,82.817 182.84,81.435 182.84,79.762L182.84,72.996C182.84,69.94 182.385,67.612 181.476,66.012C180.567,64.411 179.348,63.338 177.82,62.792C176.292,62.247 174.583,61.974 172.691,61.974C170.872,61.974 168.926,62.229 166.853,62.738C164.779,63.247 163.124,64.302 161.887,65.903C163.27,66.194 164.47,66.921 165.489,68.085C166.507,69.249 167.016,70.741 167.016,72.559C167.016,74.378 166.434,75.815 165.27,76.87C164.106,77.925 162.615,78.452 160.796,78.452C158.686,78.452 157.14,77.779 156.158,76.433C155.176,75.087 154.685,73.578 154.685,71.905C154.685,70.013 155.158,68.485 156.104,67.321C157.049,66.157 158.25,65.066 159.705,64.047C161.378,62.883 163.543,61.883 166.198,61.046C168.853,60.21 171.855,59.791 175.201,59.791C178.184,59.791 180.73,60.137 182.84,60.828C184.95,61.519 186.696,62.52 188.078,63.829C189.97,65.575 191.207,67.703 191.789,70.213C192.371,72.723 192.662,75.724 192.662,79.216L192.662,109.554C192.662,111.3 192.916,112.591 193.426,113.428C193.935,114.265 194.808,114.683 196.045,114.683C197.063,114.683 197.954,114.465 198.718,114.028C199.482,113.592 200.228,113.046 200.955,112.391L202.156,114.246C200.628,115.41 199.173,116.374 197.791,117.138C196.408,117.902 194.553,118.284 192.225,118.284C188.442,118.284 185.932,117.302 184.695,115.338C183.459,113.373 182.84,111.118 182.84,108.572C180.512,112.428 177.875,115.01 174.928,116.32C171.982,117.629 168.908,118.284 165.707,118.284ZM65.503,105.022L64.981,106.607L65.854,105.953L65.503,105.022L75.785,73.76C77.022,70.122 77.113,67.576 76.058,66.121C75.003,64.666 72.548,63.793 68.692,63.502L68.692,61.319C70.001,61.392 71.129,61.446 72.075,61.483C73.021,61.519 73.948,61.556 74.858,61.592C75.767,61.628 76.767,61.647 77.859,61.647C79.532,61.647 81.041,61.61 82.387,61.537C83.733,61.465 84.988,61.392 86.152,61.319L86.152,63.502C84.77,63.647 83.479,64.247 82.278,65.302C81.078,66.357 80.005,68.303 79.059,71.141L63.235,118.066L61.38,118.066L44.101,74.169L48.503,61.756L46.32,60.883L43.81,73.432L44.101,74.169L28.532,118.066L26.677,118.066L8.78,69.722C7.616,66.812 6.47,65.066 5.343,64.484C4.215,63.902 3.251,63.611 2.451,63.611L2.451,61.319C3.906,61.537 5.415,61.701 6.98,61.81C8.544,61.919 10.235,61.974 12.054,61.974C14.309,61.974 16.692,61.901 19.202,61.756C21.712,61.61 24.058,61.465 26.241,61.319L26.241,63.611C24.422,63.611 22.821,63.738 21.439,63.993C20.057,64.247 19.147,64.993 18.711,66.23C18.274,67.467 18.602,69.649 19.693,72.778L30.648,104.168L30.279,105.189L31.042,105.298L30.648,104.168L46.32,60.883L48.83,60.883L65.503,105.022ZM104.049,32.073L104.049,72.887C105.941,67.94 108.578,64.52 111.961,62.629C115.344,60.737 118.891,59.791 122.601,59.791C125.366,59.791 127.676,60.155 129.531,60.883C131.386,61.61 132.932,62.629 134.169,63.938C135.551,65.393 136.533,67.212 137.115,69.395C137.697,71.577 137.988,74.524 137.988,78.234L137.988,107.371C137.988,110.427 138.625,112.5 139.898,113.592C141.171,114.683 143.299,115.229 146.282,115.229L146.282,117.52C145.045,117.448 143.154,117.357 140.607,117.247C138.061,117.138 135.587,117.084 133.187,117.084C130.786,117.084 128.44,117.138 126.148,117.247C123.856,117.357 122.128,117.448 120.964,117.52L120.964,115.229C123.583,115.229 125.439,114.683 126.53,113.592C127.621,112.5 128.167,110.427 128.167,107.371L128.167,75.833C128.167,73.578 127.985,71.504 127.621,69.613C127.257,67.721 126.439,66.194 125.166,65.029C123.893,63.865 121.946,63.283 119.327,63.283C114.889,63.283 111.234,65.12 108.36,68.794C105.486,72.468 104.049,77.216 104.049,83.036L104.049,107.371C104.049,110.427 104.595,112.5 105.686,113.592C106.778,114.683 108.633,115.229 111.252,115.229L111.252,117.52C110.088,117.448 108.36,117.357 106.068,117.247C103.777,117.138 101.43,117.084 99.029,117.084C96.629,117.084 94.155,117.138 91.609,117.247C89.062,117.357 87.171,117.448 85.934,117.52L85.934,115.229C88.917,115.229 91.045,114.683 92.318,113.592C93.591,112.5 94.228,110.427 94.228,107.371L94.228,45.168C94.228,41.894 93.646,39.475 92.482,37.911C91.318,36.347 89.135,35.565 85.934,35.565L85.934,33.273C88.262,33.491 90.517,33.601 92.7,33.601C94.81,33.601 96.829,33.473 98.757,33.219C100.685,32.964 102.449,32.582 104.049,32.073ZM470.987,61.542C472.267,61.612 473.525,61.647 474.759,61.647C476.869,61.647 478.887,61.519 480.815,61.265C482.743,61.01 484.508,60.628 486.108,60.119L486.108,107.371C486.108,110.427 486.745,112.5 488.018,113.592C489.291,114.683 491.419,115.229 494.402,115.229L494.402,117.52C493.165,117.448 491.292,117.357 488.782,117.247C486.272,117.138 483.744,117.084 481.197,117.084C478.724,117.084 476.214,117.138 473.667,117.247C472.674,117.29 471.781,117.33 470.987,117.367L470.987,114.998C472.451,114.743 473.581,114.274 474.377,113.592C475.65,112.5 476.286,110.427 476.286,107.371L476.286,73.214C476.286,69.94 475.704,67.521 474.54,65.957C473.785,64.942 472.601,64.256 470.987,63.9L470.987,61.542ZM594.036,60.119L594.036,107.371C594.036,110.427 594.673,112.5 595.946,113.592C597.219,114.683 599.347,115.229 602.33,115.229L602.33,117.52C601.093,117.448 599.22,117.357 596.71,117.247C594.2,117.138 591.672,117.084 589.125,117.084C586.652,117.084 584.142,117.138 581.595,117.247C579.049,117.357 577.158,117.448 575.921,117.52L575.921,115.229C578.904,115.229 581.032,114.683 582.305,113.592C583.578,112.5 584.215,110.427 584.215,107.371L584.215,73.214C584.215,69.94 583.633,67.521 582.468,65.957C581.304,64.393 579.122,63.611 575.921,63.611L575.921,61.319C578.249,61.537 580.504,61.647 582.687,61.647C584.797,61.647 586.815,61.519 588.743,61.265C590.671,61.01 592.436,60.628 594.036,60.119ZM219.023,44.208L219.023,116.725C218.463,116.343 217.934,115.917 217.434,115.447C215.833,113.774 214.724,111.773 214.105,109.445C213.487,107.117 213.178,104.025 213.178,100.169L213.178,63.611L202.701,63.611L202.701,61.428L213.178,61.428L213.178,44.732C214.997,44.659 216.743,44.513 218.416,44.295C218.62,44.268 218.823,44.24 219.023,44.208ZM170.509,113.919C172.691,113.919 174.837,113.282 176.947,112.009C179.057,110.736 181.021,108.608 182.84,105.625L182.84,84.236C181.749,85.837 180.057,87.11 177.766,88.056C175.474,89.001 173.109,90.038 170.672,91.166C168.235,92.293 166.143,93.821 164.397,95.749C162.651,97.677 161.778,100.423 161.778,103.988C161.778,107.335 162.615,109.827 164.288,111.464C165.962,113.101 168.035,113.919 170.509,113.919ZM666.825,32.182C673.663,32.182 679.193,33.928 683.412,37.42C687.632,40.912 689.742,45.714 689.742,51.825C689.742,58.009 687.486,63.12 682.976,67.157C678.465,71.195 672.536,74.16 665.188,76.051L665.188,91.984L663.005,91.984L663.005,75.069C667.88,73.251 671.517,71.25 673.918,69.067C676.319,66.885 677.938,64.52 678.774,61.974C679.611,59.428 680.029,56.736 680.029,53.898C680.029,46.987 678.611,42.003 675.773,38.948C672.936,35.892 669.262,34.364 664.751,34.364C663.005,34.364 661.096,34.619 659.022,35.128C656.949,35.638 655.294,36.692 654.057,38.293C655.439,38.584 656.548,39.202 657.385,40.148C658.222,41.094 658.64,42.331 658.64,43.859C658.64,45.677 658.058,47.114 656.894,48.169C655.73,49.224 654.311,49.752 652.638,49.752C650.965,49.752 649.582,49.206 648.491,48.115C647.4,47.023 646.854,45.641 646.854,43.968C646.854,42.44 647.327,41.003 648.273,39.657C649.219,38.311 650.455,37.129 651.983,36.11C653.511,35.092 655.494,34.183 657.931,33.382C660.368,32.582 663.333,32.182 666.825,32.182ZM588.361,34.037C590.253,34.037 591.89,34.728 593.272,36.11C594.654,37.493 595.346,39.13 595.346,41.021C595.346,42.913 594.654,44.55 593.272,45.932C591.89,47.314 590.253,48.005 588.361,48.005C586.47,48.005 584.833,47.314 583.451,45.932C582.068,44.55 581.377,42.913 581.377,41.021C581.377,39.13 582.068,37.493 583.451,36.11C584.833,34.728 586.47,34.037 588.361,34.037ZM480.433,34.037C482.325,34.037 483.962,34.728 485.344,36.11C486.726,37.493 487.418,39.13 487.418,41.021C487.418,42.913 486.726,44.55 485.344,45.932C483.962,47.314 482.325,48.005 480.433,48.005C478.542,48.005 476.905,47.314 475.523,45.932C474.14,44.55 473.449,42.913 473.449,41.021C473.449,39.13 474.14,37.493 475.523,36.11C476.905,34.728 478.542,34.037 480.433,34.037Z" style="fill:rgb(235,235,235);fill-rule:nonzero;"/>
    <path d="M470.987,61.542C470.003,61.488 469.005,61.414 467.993,61.319L467.993,63.611C469.116,63.611 470.114,63.707 470.987,63.9L470.987,114.999C470.109,115.152 469.111,115.229 467.993,115.229L467.993,117.52C468.747,117.476 469.745,117.425 470.987,117.367L470.987,151.138L219.023,151.138L219.023,155.49L470.987,155.49L470.987,170L219.023,170L219.023,116.725C219.847,117.287 220.736,117.752 221.69,118.12C223.29,118.739 225.327,119.048 227.801,119.048C232.239,119.048 235.531,117.593 237.677,114.683C239.823,111.773 241.26,108.208 241.988,103.988L239.805,103.443C238.641,107.662 237.259,110.663 235.658,112.446C234.058,114.228 232.166,115.119 229.984,115.119C227.801,115.119 226.091,114.428 224.855,113.046C223.618,111.664 222.999,109.263 222.999,105.844L222.999,63.611L239.15,63.611L239.15,61.428L222.999,61.428L222.999,43.204C221.786,43.651 220.461,43.986 219.023,44.209L219.023,-0L470.987,-0L470.987,61.542ZM408.102,119.927L400.006,70.922C399.642,68.667 399.205,67.103 398.696,66.23C398.187,65.357 397.459,64.92 396.514,64.92C395.713,64.92 394.804,65.557 393.785,66.83C392.767,68.103 391.53,70.813 390.075,74.96L388.656,78.998L386.583,78.998L389.311,71.032C390.839,66.594 392.73,63.629 394.986,62.138C397.241,60.646 399.533,59.9 401.861,59.9C404.116,59.9 405.862,60.61 407.099,62.028C408.336,63.447 409.209,66.084 409.718,69.94L415.31,110.949C414.446,112.15 413.563,113.322 412.665,114.465C411.123,116.451 409.602,118.272 408.102,119.927L408.299,121.122L415.611,113.155L415.31,110.949C418.578,106.412 421.606,101.454 424.396,96.077C427.924,89.274 430.38,82.417 431.762,75.506C430.016,74.56 428.161,73.196 426.197,71.414C424.232,69.631 423.323,67.503 423.468,65.029C423.614,63.356 424.196,62.083 425.214,61.21C426.233,60.337 427.506,59.9 429.034,59.9C430.998,59.9 432.435,60.646 433.344,62.138C434.254,63.629 434.709,65.83 434.709,68.74C434.709,72.45 434.09,76.433 432.853,80.689C431.617,84.945 429.961,89.256 427.888,93.621C425.815,97.986 423.505,102.188 420.958,106.225C418.412,110.263 415.829,113.919 413.21,117.193C412.046,118.648 410.446,120.467 408.409,122.649C406.372,124.832 403.953,127.069 401.152,129.361C398.351,131.652 395.204,133.635 391.712,135.308C389.529,136.327 387.656,137.036 386.092,137.436C384.528,137.836 383.236,138.036 382.218,138.036C380.763,138.036 379.49,137.654 378.398,136.891C377.307,136.127 376.761,135.017 376.761,133.562C376.761,131.962 377.362,130.743 378.562,129.906C379.762,129.07 381.126,128.651 382.654,128.651C384.328,128.651 385.91,129.088 387.401,129.961C388.893,130.834 390.33,131.816 391.712,132.907C394.84,131.234 398.169,128.961 401.697,126.087C403.787,124.384 405.922,122.331 408.102,119.927ZM360.824,95.92C361.955,93.26 363.084,90.348 364.212,87.183L366.067,75.397C365.594,77.493 365.056,79.559 364.452,81.595L360.824,95.92C357.798,103.041 354.762,108.35 351.716,111.846C347.533,116.647 343.259,119.048 338.894,119.048C335.474,119.048 332.91,117.811 331.2,115.338C329.491,112.864 328.636,109.699 328.636,105.844C328.636,102.351 329.218,98.55 330.382,94.44C331.546,90.329 333.165,86.237 335.238,82.163C337.311,78.089 339.694,74.378 342.386,71.032C345.078,67.685 348.006,64.993 351.171,62.956C354.335,60.919 357.555,59.9 360.829,59.9C363.375,59.9 365.321,61.155 366.667,63.665C367.328,64.898 367.73,66.371 367.873,68.085L366.394,73.927C366.363,74.23 366.326,74.538 366.285,74.851L367.485,74.196C367.893,71.9 368.022,69.863 367.873,68.085L369.559,61.428C371.305,61.356 373.051,61.21 374.797,60.992C376.543,60.773 378.144,60.41 379.599,59.9L365.958,108.135C365.812,108.79 365.612,109.645 365.357,110.7C365.103,111.755 365.103,112.719 365.357,113.592C365.612,114.465 366.358,114.901 367.595,114.901C369.05,114.901 370.468,114.101 371.851,112.5C373.233,110.9 374.615,107.99 375.997,103.77L377.307,99.732L379.38,99.732L376.652,107.699C375.052,112.064 373.087,115.047 370.759,116.647C368.431,118.248 366.212,119.048 364.102,119.048C361.265,119.048 359.264,118.102 358.1,116.211C357.155,114.537 356.9,112.591 357.336,110.372C357.773,108.153 358.282,105.916 358.864,103.661L360.824,95.92ZM302.891,98.404C304.302,95.401 305.717,92.024 307.137,88.274L308.774,76.488C308.248,78.758 307.636,80.995 306.939,83.197L302.891,98.404C301.483,101.402 300.079,104.027 298.68,106.28C295.879,110.791 293.042,114.046 290.168,116.047C287.294,118.048 284.293,119.048 281.165,119.048C277.745,119.048 274.999,117.866 272.926,115.501C270.852,113.137 269.815,109.518 269.815,104.643C269.815,101.151 270.379,97.386 271.507,93.348C272.635,89.311 274.253,85.327 276.363,81.399C278.473,77.47 281.001,73.887 283.948,70.65C286.894,67.412 290.15,64.811 293.715,62.847C297.279,60.883 301.063,59.9 305.064,59.9C306.737,59.9 308.301,60.537 309.756,61.81C310.699,62.635 311.367,63.727 311.76,65.085L310.996,67.953C311.118,68.499 311.214,69.088 311.284,69.722L312.157,67.539C312.106,66.642 311.974,65.824 311.76,65.085L317.177,44.732C317.832,42.258 317.723,40.439 316.85,39.275C315.977,38.111 313.758,37.529 310.193,37.529L310.848,35.237C314.849,35.165 318.378,34.746 321.433,33.982C324.489,33.219 327.399,32.145 330.164,30.763L308.774,108.244C308.265,109.918 308.065,111.464 308.174,112.882C308.283,114.301 309.138,115.01 310.739,115.01C312.194,115.01 313.54,114.192 314.776,112.555C316.013,110.918 317.323,108.026 318.705,103.879L320.015,99.841L322.088,99.841L319.578,107.808C318.196,112.246 316.286,115.229 313.849,116.756C311.412,118.284 309.102,119.048 306.919,119.048C302.554,119.048 300.262,116.975 300.044,112.828C299.971,111.664 300.062,110.318 300.317,108.79C300.572,107.262 300.953,105.589 301.463,103.77L302.891,98.404ZM364.452,81.595C363.567,84.577 362.541,87.494 361.374,90.347C359.41,95.149 357.264,99.441 354.936,103.224C352.608,107.008 350.316,110.009 348.061,112.228C345.805,114.446 343.805,115.556 342.059,115.556C340.894,115.556 339.967,114.938 339.276,113.701C338.585,112.464 338.239,110.281 338.239,107.153C338.239,102.351 338.93,97.313 340.312,92.039C341.695,86.764 343.514,81.853 345.769,77.306C348.024,72.759 350.443,69.067 353.026,66.23C355.609,63.393 358.1,61.974 360.501,61.974C362.829,61.974 364.503,63.156 365.521,65.521C366.457,67.693 366.748,70.495 366.394,73.927L364.452,81.595ZM306.939,83.197C306.094,85.866 305.123,88.486 304.027,91.057C302.027,95.749 299.844,99.932 297.48,103.606C295.115,107.28 292.787,110.19 290.495,112.337C288.204,114.483 286.148,115.556 284.33,115.556C282.729,115.556 281.529,114.774 280.728,113.21C279.928,111.646 279.528,109.263 279.528,106.062C279.528,101.697 280.201,97.004 281.547,91.984C282.893,86.964 284.748,82.199 287.112,77.688C289.477,73.178 292.205,69.504 295.297,66.666C298.389,63.829 301.681,62.41 305.173,62.41C306.628,62.41 307.938,62.974 309.102,64.102C309.984,64.957 310.616,66.24 310.996,67.953L306.939,83.197Z" style="fill:rgb(235,235,235);"/>
</svg>
