<?xml version="1.0" standalone="no"?>
<!DOCTYPE svg PUBLIC "-//W3C//DTD SVG 20010904//EN"
 "http://www.w3.org/TR/2001/REC-SVG-20010904/DTD/svg10.dtd">
<svg version="1.0" xmlns="http://www.w3.org/2000/svg"
 width="800.000000pt" height="800.000000pt" viewBox="0 0 800.000000 800.000000"
 preserveAspectRatio="xMidYMid meet">
<metadata>
Created by potrace 1.14, written by Peter Selinger 2001-2017
</metadata>
<g transform="translate(0.000000,800.000000) scale(0.100000,-0.100000)"
fill="#000000" stroke="none">
<path d="M1930 6715 l0 -301 -427 0 -428 0 -3 -2716 -2 -2715 2930 0 2930 0 0
2713 c0 2161 -3 2713 -12 2716 -7 2 -201 3 -430 3 l-418 -1 0 301 0 302 -430
0 c-388 0 -430 -1 -431 -16 0 -9 -2 -142 -3 -296 -2 -154 -4 -282 -4 -286 -1
-3 -543 -5 -1205 -5 l-1204 0 1 285 c1 157 -2 293 -6 302 -6 14 -52 16 -433
16 l-425 -1 0 -301z m4457 -1708 c4 -5 8 -3214 4 -3449 l-1 -36 -2390 0 -2390
0 0 207 c-1 304 -1 2950 -1 3131 l1 155 2385 -1 c1312 -1 2388 -4 2392 -7z"/>
<path d="M1932 4043 l3 -647 882 -1 883 0 1 30 c1 39 1 1248 0 1258 -1 4 -399
7 -886 7 l-885 0 2 -647z"/>
</g>
</svg>
